<?xml version="1.0" encoding="utf-8"?>
<!-- Generator: Adobe Illustrator 21.0.0, SVG Export Plug-In . SVG Version: 6.00 Build 0)  -->
<svg version="1.1" id="mcart" xmlns="http://www.w3.org/2000/svg" xmlns:xlink="http://www.w3.org/1999/xlink" x="0px" y="0px"
	 viewBox="0 0 1920 1080" style="enable-background:new 0 0 1920 1080;" xml:space="preserve">
<style type="text/css">
	.st0{fill:#40407A;}
	.st1{fill:#22223F;}
</style>
<g>
	<g id="m">
		<g id="m_1_">
			<g>
				<ellipse transform="matrix(0.866 -0.5 0.5 0.866 -61.8591 701.8525)" class="st0" cx="1278.7" cy="466.4" rx="45.2" ry="45.2"/>
				
					<ellipse transform="matrix(0.866 -0.5 0.5 0.866 -109.7013 749.6948)" class="st0" cx="1344.1" cy="579.6" rx="45.2" ry="45.2"/>
				
					<rect x="1266.3" y="457.6" transform="matrix(0.866 -0.5 0.5 0.866 -85.7802 725.7736)" class="st0" width="90.3" height="130.7"/>
			</g>
			<g>
				<ellipse transform="matrix(0.866 -0.5 0.5 0.866 -79.3716 636.4949)" class="st0" cx="1148" cy="466.4" rx="45.2" ry="45.2"/>
				
					<ellipse transform="matrix(0.866 -0.5 0.5 0.866 -127.2138 684.3372)" class="st0" cx="1213.4" cy="579.6" rx="45.2" ry="45.2"/>
				
					<rect x="1135.5" y="457.6" transform="matrix(0.866 -0.5 0.5 0.866 -103.2927 660.4161)" class="st0" width="90.3" height="130.7"/>
			</g>
			<g>
				
					<ellipse transform="matrix(0.5 -0.866 0.866 0.5 235.4917 1340.5973)" class="st0" cx="1278.7" cy="466.4" rx="45.2" ry="45.2"/>
				
					<ellipse transform="matrix(0.5 -0.866 0.866 0.5 104.7842 1340.5973)" class="st0" cx="1213.4" cy="579.6" rx="45.2" ry="45.2"/>
				
					<rect x="1200.9" y="457.6" transform="matrix(0.866 0.5 -0.5 0.866 428.4181 -552.9678)" class="st0" width="90.3" height="130.7"/>
			</g>
			<g>
				<ellipse transform="matrix(0.5 -0.866 0.866 0.5 170.1379 1227.4012)" class="st0" cx="1148" cy="466.4" rx="45.2" ry="45.2"/>
				<ellipse transform="matrix(0.5 -0.866 0.866 0.5 39.4304 1227.4012)" class="st0" cx="1082.7" cy="579.6" rx="45.2" ry="45.2"/>
				
					<rect x="1070.2" y="457.6" transform="matrix(0.866 0.5 -0.5 0.866 410.9066 -487.614)" class="st0" width="90.3" height="130.7"/>
			</g>
		</g>
		<g id="shadows">
			<path class="st1" d="M1148,556.7l-26.2,45.5c-12.5,21.6-40.1,29-61.7,16.5c-21.6-12.5-3.1-45.6,17.1-60.3
				C1127.8,521.7,1148,556.7,1148,556.7z"/>
			<path class="st1" d="M1278.7,556.7l-26.2,45.5c-12.5,21.6-40.1,29-61.7,16.5c-21.6-12.5-3.1-45.6,17.1-60.3
				C1258.6,521.7,1278.7,556.7,1278.7,556.7z"/>
		</g>
	</g>
	<path id="t" class="st0" d="M966.2,500.8v44.6c0,6.2,1.2,12.1,3.6,17.5c2.4,5.5,5.7,10.2,9.8,14.3c4.1,4.1,9,7.3,14.5,9.6
		c5.6,2.4,11.5,3.5,17.9,3.5c4.4,0,8.6-0.5,12.6-1.5c1.9,12.9,8.5,25.1,19,33.8c-0.6,0.3-1.3,0.5-1.9,0.8
		c-9.2,3.5-19.1,5.2-29.6,5.2c-11.6,0-22.6-2.2-32.7-6.5c-10.2-4.3-19.1-10.3-26.7-17.8c-7.6-7.5-13.7-16.4-18.1-26.5
		c-4.4-10.2-6.6-21.1-6.6-32.7V431.8c0-2.7,0.5-5.2,1.6-7.6c1.1-2.4,2.5-4.4,4.2-6.2c1.8-1.8,3.8-3.1,6.2-4.1s4.8-1.5,7.4-1.5
		c2.6,0,5,0.5,7.3,1.5c2.3,1,4.3,2.4,6,4.1c1.7,1.8,3,3.8,4,6.2c1,2.4,1.5,4.9,1.5,7.6v30.7h61.4c2.7,0,5.2,0.5,7.6,1.5
		s4.4,2.4,6.2,4.1c1.8,1.8,3.1,3.8,4.1,6.2c1,2.3,1.5,4.9,1.5,7.6c0,2.6-0.5,5-1.5,7.3c-1,2.3-2.4,4.3-4.1,6
		c-1.8,1.7-3.8,3.1-6.2,4.1s-4.9,1.5-7.6,1.5H966.2z"/>
	<path id="r" class="st1" d="M849.2,607.6c0,2.6-0.8,4.3-1.7,6.7c-0.9,2.4-2.3,4.3-4,6c-1.7,1.6-3.5,3-5.7,4c-2.2,1-4.6,1.9-7.2,1.9
		c-2.7,0-5.1-0.1-7.5-1.1c-2.4-1-4.5-2.3-6.3-4c-1.8-1.6-3.2-3.6-4.2-6c-1.1-2.4-1.6-4.8-1.6-7.4v-57c0-12.1,2.3-23.5,7-34.2
		c4.6-10.7,11-20,19-28c8-8,17.3-14.3,28-19c10.7-4.6,22-7,34-7h0.4c6.3,0,11.3,1.8,14.7,5.4c3.5,3.6,5.2,8.1,5.2,13.7
		c0,2.7-0.5,5.2-1.6,7.6c-1.1,2.4-2.5,4.4-4.3,6.1c-1.8,1.7-3.9,3.1-6.3,4.1c-2.4,1-5,1.5-7.7,1.5h-0.4c-6.7,0-13.1,1.3-19.1,3.9
		c-6.1,2.6-11.3,6.1-15.8,10.6c-4.5,4.5-8.1,9.7-10.8,15.7c-2.7,6-4.1,12.4-4.1,19.2V607.6z"/>
	<path id="a" class="st0" d="M681.2,544.5c0-11.6,2.2-22.5,6.7-32.7c4.5-10.2,10.5-19.1,18.2-26.7c7.6-7.6,16.5-13.7,26.7-18.1
		c10.2-4.4,21-6.6,32.5-6.6c11.6,0,22.6,2.2,32.8,6.6c10.2,4.4,19.1,10.4,26.7,18.1c7.6,7.6,13.6,16.6,17.9,26.7
		c4.3,10.2,6.5,21.1,6.5,32.7v62.4c0,2.7-0.5,5.2-1.5,7.6c-1,2.4-2.4,4.4-4.1,6.2c-1.8,1.8-3.9,3.2-6.3,4.2c-2.4,1.1-5,1.6-7.7,1.6
		c-4.6,0-8.5-1.4-11.6-4.1c-3.2-2.7-5.3-6.1-6.3-10.2c-6.7,5.1-14,9.1-21.8,12c-7.8,2.9-16,4.4-24.6,4.4c-11.5,0-22.4-2.2-32.5-6.6
		c-10.2-4.4-19.1-10.4-26.7-18.1c-7.6-7.6-13.7-16.6-18.2-26.8C683.4,566.9,681.2,556,681.2,544.5z M719.4,544.5
		c0,6.2,1.2,12.1,3.6,17.7c2.4,5.6,5.7,10.5,9.9,14.6c4.2,4.2,9,7.5,14.6,9.9c5.5,2.4,11.5,3.6,17.8,3.6c6.3,0,12.3-1.2,17.9-3.6
		c5.6-2.4,10.4-5.7,14.6-9.9c4.1-4.2,7.3-9.1,9.7-14.6c2.4-5.6,3.5-11.5,3.5-17.7c0-6.3-1.2-12.3-3.5-17.9
		c-2.4-5.6-5.6-10.4-9.7-14.6c-4.1-4.1-9-7.4-14.6-9.8c-5.6-2.4-11.6-3.6-17.9-3.6c-6.2,0-12.1,1.2-17.7,3.6
		c-5.6,2.4-10.5,5.7-14.6,9.8c-4.2,4.1-7.5,9-9.9,14.6C720.6,532.2,719.4,538.1,719.4,544.5z"/>
	<path id="c" class="st0" d="M568.8,545.5c0,5.5,1.1,11,3.4,16.4c2.3,5.4,5.4,10.3,9.3,14.5c3.9,4.3,8.5,7.8,13.8,10.5
		c5.3,2.7,11,4.1,17.1,4.2c6.3,0,12-0.8,16.8-2.4c4.9-1.6,9.8-4.4,14.7-8.5c2.3-2,5-3.8,7.8-5.6c2.9-1.7,6-2.6,9.4-2.6
		c2,0,4.1,0.4,6.3,1.3c2.2,0.9,4.5,2.3,6.9,4.3c2,1.8,3.5,3.8,4.5,6.3c1,2.4,1.5,4.9,1.4,7.6c-0.1,2.6-0.6,5.3-1.8,7.8
		c-1.1,2.6-2.8,5.1-5,7.4c-7.3,7.4-15.9,13-26,16.9c-10,3.9-20.6,5.8-31.6,5.8c-11.7,0-22.8-2.1-33.1-6.4
		c-10.3-4.3-19.4-10.2-27.1-17.7c-7.8-7.5-13.9-16.4-18.3-26.5c-4.5-10.2-6.7-21.1-6.7-32.9c0.1-0.1,0.2-0.2,0.2-0.4h-0.2
		c0-11.7,2.2-22.8,6.7-33c4.5-10.3,10.6-19.2,18.3-26.8c7.8-7.6,16.8-13.5,27.1-17.9c10.3-4.3,21.4-6.5,33.1-6.5
		c11,0,21.6,1.9,31.6,5.6c10,3.7,18.7,9.3,26,16.7c2.2,2.2,3.9,4.7,5.1,7.3c1.2,2.6,1.8,5.3,1.9,7.9c0.1,2.6-0.4,5.2-1.5,7.6
		c-1.1,2.4-2.6,4.6-4.8,6.4c-2.4,2-4.6,3.4-6.7,4.2c-2.1,0.8-4.2,1.2-6.2,1.2c-3.4,0-6.6-0.9-9.4-2.6c-2.9-1.7-5.6-3.6-8-5.6
		c-4.9-3.8-9.8-6.5-14.6-8.1c-4.8-1.6-9.9-2.5-15.2-2.5c-6,0-11.7,1.2-17.3,3.7c-5.5,2.5-10.3,5.8-14.5,10
		c-4.1,4.2-7.4,9.1-9.9,14.6c-2.5,5.5-3.7,11.3-3.7,17.3L568.8,545.5z"/>
	<circle id="wheel" class="st1" cx="729" cy="648" r="16.2"/>
	<circle id="wheel_1_" class="st1" cx="832.8" cy="648" r="16.2"/>
	<g>
		<path class="st1" d="M878.2,654.6c0,1-0.2,1.9-0.6,2.7c-0.4,0.8-0.9,1.4-1.6,1.9c-0.7,0.5-1.5,0.9-2.5,1.2c-0.9,0.3-2,0.4-3.1,0.4
			c-0.7,0-1.3-0.1-1.9-0.2c-0.6-0.1-1.2-0.2-1.6-0.4s-0.9-0.3-1.2-0.5s-0.6-0.3-0.7-0.5c-0.1-0.1-0.3-0.4-0.3-0.7
			c-0.1-0.3-0.1-0.7-0.1-1.3c0-0.4,0-0.7,0-0.9c0-0.2,0.1-0.4,0.1-0.6c0.1-0.1,0.1-0.2,0.2-0.3c0.1,0,0.2-0.1,0.3-0.1
			c0.1,0,0.4,0.1,0.7,0.3s0.6,0.3,1.1,0.6c0.4,0.2,0.9,0.4,1.5,0.6c0.6,0.2,1.2,0.3,1.9,0.3c0.5,0,0.9,0,1.2-0.1
			c0.4-0.1,0.7-0.2,0.9-0.4c0.3-0.2,0.5-0.4,0.6-0.7c0.1-0.3,0.2-0.6,0.2-0.9c0-0.4-0.1-0.7-0.4-1c-0.2-0.3-0.6-0.5-1-0.8
			c-0.4-0.2-0.9-0.4-1.4-0.6c-0.5-0.2-1-0.4-1.6-0.6c-0.5-0.2-1.1-0.5-1.6-0.8c-0.5-0.3-1-0.7-1.4-1.1c-0.4-0.4-0.7-0.9-1-1.5
			s-0.4-1.3-0.4-2.2c0-0.9,0.2-1.6,0.5-2.4c0.3-0.7,0.8-1.3,1.4-1.8c0.6-0.5,1.4-0.9,2.3-1.2c0.9-0.3,1.9-0.4,3-0.4
			c0.6,0,1.1,0,1.6,0.1s1,0.2,1.4,0.3c0.4,0.1,0.8,0.3,1.1,0.4c0.3,0.1,0.5,0.3,0.6,0.4c0.1,0.1,0.2,0.2,0.3,0.3
			c0.1,0.1,0.1,0.2,0.1,0.4c0,0.1,0,0.3,0.1,0.5c0,0.2,0,0.5,0,0.8c0,0.4,0,0.7,0,0.9c0,0.2-0.1,0.4-0.1,0.5c0,0.1-0.1,0.2-0.2,0.3
			s-0.2,0.1-0.3,0.1c-0.1,0-0.3-0.1-0.6-0.2c-0.3-0.1-0.6-0.3-1-0.5c-0.4-0.2-0.8-0.3-1.3-0.5c-0.5-0.1-1.1-0.2-1.7-0.2
			c-0.5,0-0.8,0-1.2,0.1c-0.3,0.1-0.6,0.2-0.8,0.4c-0.2,0.2-0.4,0.4-0.5,0.6c-0.1,0.2-0.2,0.5-0.2,0.8c0,0.4,0.1,0.8,0.4,1
			c0.3,0.3,0.6,0.5,1,0.7c0.4,0.2,0.9,0.4,1.4,0.6c0.5,0.2,1.1,0.4,1.6,0.6c0.5,0.2,1.1,0.5,1.6,0.8c0.5,0.3,1,0.7,1.4,1.1
			c0.4,0.4,0.7,0.9,1,1.5C878.1,653.1,878.2,653.8,878.2,654.6z"/>
		<path class="st1" d="M899.1,659.6c0,0.1,0,0.3-0.1,0.4c-0.1,0.1-0.2,0.2-0.4,0.3c-0.2,0.1-0.4,0.1-0.8,0.2c-0.3,0-0.7,0-1.2,0
			c-0.5,0-0.9,0-1.2,0c-0.3,0-0.6-0.1-0.8-0.2c-0.2-0.1-0.3-0.2-0.4-0.3c-0.1-0.1-0.1-0.2-0.1-0.4v-10.2c0-0.9-0.1-1.5-0.2-2
			c-0.1-0.5-0.3-0.9-0.6-1.3s-0.6-0.6-0.9-0.8c-0.4-0.2-0.8-0.3-1.3-0.3c-0.6,0-1.3,0.2-1.9,0.7c-0.7,0.5-1.3,1.1-2,2v11.9
			c0,0.1,0,0.3-0.1,0.4c-0.1,0.1-0.2,0.2-0.4,0.3c-0.2,0.1-0.5,0.1-0.8,0.2c-0.3,0-0.7,0-1.2,0c-0.5,0-0.9,0-1.2,0
			c-0.3,0-0.6-0.1-0.8-0.2c-0.2-0.1-0.3-0.2-0.4-0.3c-0.1-0.1-0.1-0.2-0.1-0.4v-26.3c0-0.1,0-0.3,0.1-0.4c0.1-0.1,0.2-0.2,0.4-0.3
			s0.5-0.1,0.8-0.2c0.3,0,0.7-0.1,1.2-0.1c0.5,0,0.9,0,1.2,0.1c0.3,0,0.6,0.1,0.8,0.2c0.2,0.1,0.3,0.2,0.4,0.3
			c0.1,0.1,0.1,0.2,0.1,0.4v9.9c0.9-0.9,1.8-1.5,2.7-1.9c0.9-0.4,1.8-0.6,2.8-0.6c1.2,0,2.2,0.2,3.1,0.6s1.5,0.9,2,1.6
			c0.5,0.7,0.9,1.5,1.1,2.4c0.2,0.9,0.3,2.1,0.3,3.4V659.6z"/>
		<path class="st1" d="M922.1,650.5c0,1.5-0.2,2.9-0.6,4.2c-0.4,1.3-1,2.3-1.8,3.2c-0.8,0.9-1.8,1.6-3.1,2.1
			c-1.2,0.5-2.7,0.7-4.3,0.7c-1.6,0-3-0.2-4.1-0.7c-1.2-0.4-2.1-1.1-2.9-1.9c-0.8-0.8-1.3-1.9-1.7-3.1c-0.4-1.2-0.6-2.6-0.6-4.2
			c0-1.5,0.2-2.9,0.6-4.2c0.4-1.3,1-2.3,1.8-3.2c0.8-0.9,1.8-1.6,3.1-2.1c1.2-0.5,2.7-0.7,4.3-0.7c1.6,0,3,0.2,4.2,0.7
			c1.2,0.4,2.1,1.1,2.9,1.9c0.8,0.8,1.3,1.9,1.7,3.1C921.9,647.5,922.1,648.9,922.1,650.5z M916.9,650.7c0-0.9-0.1-1.7-0.2-2.4
			c-0.1-0.7-0.4-1.4-0.7-1.9c-0.3-0.5-0.8-1-1.3-1.3c-0.6-0.3-1.3-0.5-2.1-0.5c-0.7,0-1.4,0.1-2,0.4c-0.6,0.3-1,0.7-1.4,1.2
			c-0.4,0.5-0.6,1.2-0.8,1.9c-0.2,0.7-0.3,1.6-0.3,2.5c0,0.9,0.1,1.7,0.2,2.4c0.1,0.7,0.4,1.4,0.7,1.9c0.3,0.5,0.8,1,1.3,1.3
			c0.6,0.3,1.3,0.5,2.1,0.5c0.8,0,1.4-0.1,2-0.4s1-0.7,1.4-1.2s0.6-1.2,0.8-1.9C916.8,652.5,916.9,651.7,916.9,650.7z"/>
		<path class="st1" d="M944,650.4c0,1.6-0.2,3-0.5,4.3c-0.3,1.3-0.8,2.4-1.5,3.3c-0.7,0.9-1.5,1.6-2.4,2.1c-1,0.5-2.1,0.7-3.3,0.7
			c-0.5,0-1-0.1-1.4-0.2c-0.4-0.1-0.9-0.3-1.3-0.5c-0.4-0.2-0.8-0.5-1.2-0.8c-0.4-0.3-0.8-0.7-1.2-1.1v8.4c0,0.1,0,0.3-0.1,0.4
			c-0.1,0.1-0.2,0.2-0.4,0.3c-0.2,0.1-0.5,0.1-0.8,0.2s-0.7,0.1-1.2,0.1c-0.5,0-0.9,0-1.2-0.1s-0.6-0.1-0.8-0.2
			c-0.2-0.1-0.3-0.2-0.4-0.3c-0.1-0.1-0.1-0.2-0.1-0.4v-24.9c0-0.1,0-0.3,0.1-0.4c0.1-0.1,0.2-0.2,0.3-0.3c0.2-0.1,0.4-0.1,0.7-0.2
			c0.3,0,0.6,0,1,0c0.4,0,0.7,0,1,0c0.3,0,0.5,0.1,0.7,0.2c0.2,0.1,0.3,0.2,0.4,0.3c0.1,0.1,0.1,0.2,0.1,0.4v2.1
			c0.5-0.5,1-1,1.5-1.4c0.5-0.4,1-0.7,1.5-1s1.1-0.5,1.6-0.6c0.6-0.1,1.1-0.2,1.8-0.2c1.3,0,2.4,0.3,3.3,0.8s1.7,1.2,2.3,2.1
			c0.6,0.9,1,1.9,1.3,3.1C943.9,647.8,944,649.1,944,650.4z M938.8,650.8c0-0.8-0.1-1.5-0.2-2.2c-0.1-0.7-0.3-1.3-0.6-1.9
			c-0.3-0.5-0.6-1-1.1-1.3c-0.4-0.3-1-0.5-1.7-0.5c-0.3,0-0.7,0-1,0.2c-0.3,0.1-0.7,0.3-1,0.5c-0.3,0.2-0.7,0.5-1.1,0.9
			c-0.4,0.4-0.7,0.8-1.1,1.3v5.9c0.7,0.9,1.4,1.6,2,2.1c0.6,0.5,1.3,0.7,2,0.7c0.7,0,1.2-0.2,1.7-0.5c0.5-0.3,0.8-0.8,1.1-1.3
			c0.3-0.5,0.5-1.2,0.7-1.8C938.7,652.1,938.8,651.5,938.8,650.8z"/>
		<path class="st1" d="M966.1,650.4c0,1.6-0.2,3-0.5,4.3c-0.3,1.3-0.8,2.4-1.5,3.3c-0.7,0.9-1.5,1.6-2.4,2.1c-1,0.5-2.1,0.7-3.3,0.7
			c-0.5,0-1-0.1-1.4-0.2c-0.4-0.1-0.9-0.3-1.3-0.5c-0.4-0.2-0.8-0.5-1.2-0.8c-0.4-0.3-0.8-0.7-1.2-1.1v8.4c0,0.1,0,0.3-0.1,0.4
			c-0.1,0.1-0.2,0.2-0.4,0.3c-0.2,0.1-0.5,0.1-0.8,0.2s-0.7,0.1-1.2,0.1c-0.5,0-0.9,0-1.2-0.1s-0.6-0.1-0.8-0.2
			c-0.2-0.1-0.3-0.2-0.4-0.3c-0.1-0.1-0.1-0.2-0.1-0.4v-24.9c0-0.1,0-0.3,0.1-0.4c0.1-0.1,0.2-0.2,0.3-0.3c0.2-0.1,0.4-0.1,0.7-0.2
			c0.3,0,0.6,0,1,0c0.4,0,0.7,0,1,0c0.3,0,0.5,0.1,0.7,0.2c0.2,0.1,0.3,0.2,0.4,0.3c0.1,0.1,0.1,0.2,0.1,0.4v2.1
			c0.5-0.5,1-1,1.5-1.4c0.5-0.4,1-0.7,1.5-1s1.1-0.5,1.6-0.6c0.6-0.1,1.1-0.2,1.8-0.2c1.3,0,2.4,0.3,3.3,0.8s1.7,1.2,2.3,2.1
			c0.6,0.9,1,1.9,1.3,3.1C965.9,647.8,966.1,649.1,966.1,650.4z M960.8,650.8c0-0.8-0.1-1.5-0.2-2.2c-0.1-0.7-0.3-1.3-0.6-1.9
			c-0.3-0.5-0.6-1-1.1-1.3c-0.4-0.3-1-0.5-1.7-0.5c-0.3,0-0.7,0-1,0.2c-0.3,0.1-0.7,0.3-1,0.5c-0.3,0.2-0.7,0.5-1.1,0.9
			c-0.4,0.4-0.7,0.8-1.1,1.3v5.9c0.7,0.9,1.4,1.6,2,2.1c0.6,0.5,1.3,0.7,2,0.7c0.7,0,1.2-0.2,1.7-0.5c0.5-0.3,0.8-0.8,1.1-1.3
			c0.3-0.5,0.5-1.2,0.7-1.8C960.7,652.1,960.8,651.5,960.8,650.8z"/>
		<path class="st1" d="M975.5,635.7c0,1-0.2,1.7-0.6,2.1c-0.4,0.4-1.2,0.6-2.3,0.6c-1.1,0-1.9-0.2-2.3-0.6c-0.4-0.4-0.6-1-0.6-2
			c0-1,0.2-1.7,0.6-2.1c0.4-0.4,1.2-0.6,2.3-0.6c1.1,0,1.9,0.2,2.3,0.6C975.3,634.1,975.5,634.7,975.5,635.7z M975.1,659.6
			c0,0.1,0,0.3-0.1,0.4c-0.1,0.1-0.2,0.2-0.4,0.3c-0.2,0.1-0.5,0.1-0.8,0.2c-0.3,0-0.7,0-1.2,0c-0.5,0-0.9,0-1.2,0
			c-0.3,0-0.6-0.1-0.8-0.2c-0.2-0.1-0.3-0.2-0.4-0.3c-0.1-0.1-0.1-0.2-0.1-0.4v-17.8c0-0.1,0-0.3,0.1-0.4c0.1-0.1,0.2-0.2,0.4-0.3
			s0.5-0.1,0.8-0.2c0.3,0,0.7-0.1,1.2-0.1c0.5,0,0.9,0,1.2,0.1c0.3,0,0.6,0.1,0.8,0.2c0.2,0.1,0.3,0.2,0.4,0.3
			c0.1,0.1,0.1,0.2,0.1,0.4V659.6z"/>
		<path class="st1" d="M997.2,659.6c0,0.1,0,0.3-0.1,0.4c-0.1,0.1-0.2,0.2-0.4,0.3c-0.2,0.1-0.4,0.1-0.8,0.2c-0.3,0-0.7,0-1.2,0
			c-0.5,0-0.9,0-1.2,0c-0.3,0-0.6-0.1-0.8-0.2c-0.2-0.1-0.3-0.2-0.4-0.3c-0.1-0.1-0.1-0.2-0.1-0.4v-10.2c0-0.9-0.1-1.5-0.2-2
			c-0.1-0.5-0.3-0.9-0.6-1.3s-0.6-0.6-0.9-0.8c-0.4-0.2-0.8-0.3-1.3-0.3c-0.6,0-1.3,0.2-1.9,0.7c-0.7,0.5-1.3,1.1-2,2v11.9
			c0,0.1,0,0.3-0.1,0.4c-0.1,0.1-0.2,0.2-0.4,0.3c-0.2,0.1-0.5,0.1-0.8,0.2c-0.3,0-0.7,0-1.2,0c-0.5,0-0.9,0-1.2,0
			c-0.3,0-0.6-0.1-0.8-0.2c-0.2-0.1-0.3-0.2-0.4-0.3c-0.1-0.1-0.1-0.2-0.1-0.4v-17.9c0-0.1,0-0.3,0.1-0.4c0.1-0.1,0.2-0.2,0.4-0.3
			c0.2-0.1,0.4-0.1,0.7-0.2c0.3,0,0.6,0,1,0c0.4,0,0.8,0,1.1,0c0.3,0,0.5,0.1,0.7,0.2c0.2,0.1,0.3,0.2,0.3,0.3
			c0.1,0.1,0.1,0.2,0.1,0.4v2.1c1-1.1,2-1.9,3-2.4c1-0.5,2.1-0.8,3.2-0.8c1.2,0,2.2,0.2,3.1,0.6s1.5,0.9,2,1.6
			c0.5,0.7,0.9,1.5,1.1,2.4c0.2,0.9,0.3,2,0.3,3.3V659.6z"/>
		<path class="st1" d="M1018.2,643c0,0.6-0.1,1.1-0.2,1.4c-0.1,0.3-0.3,0.5-0.5,0.5h-2.1c0.3,0.3,0.5,0.7,0.6,1.1
			c0.1,0.4,0.2,0.8,0.2,1.3c0,1-0.2,2-0.5,2.8c-0.3,0.8-0.8,1.5-1.5,2c-0.6,0.6-1.4,1-2.3,1.3s-1.9,0.4-3.1,0.4
			c-0.6,0-1.1-0.1-1.6-0.2c-0.5-0.1-0.9-0.3-1.2-0.5c-0.2,0.2-0.3,0.4-0.4,0.6s-0.2,0.5-0.2,0.8c0,0.4,0.2,0.7,0.5,1
			c0.3,0.2,0.8,0.4,1.4,0.4l4.3,0.2c1,0,1.9,0.2,2.7,0.4c0.8,0.2,1.5,0.6,2,1c0.5,0.4,1,1,1.2,1.6c0.3,0.6,0.4,1.3,0.4,2.1
			c0,0.9-0.2,1.7-0.6,2.5c-0.4,0.8-1,1.5-1.7,2c-0.8,0.6-1.7,1-2.9,1.4c-1.2,0.3-2.5,0.5-4.1,0.5c-1.5,0-2.8-0.1-3.9-0.4
			c-1.1-0.2-2-0.6-2.6-1c-0.7-0.4-1.2-0.9-1.5-1.5s-0.5-1.2-0.5-2c0-0.4,0.1-0.9,0.2-1.3c0.1-0.4,0.3-0.8,0.5-1.2
			c0.2-0.4,0.5-0.7,0.8-1.1c0.3-0.3,0.7-0.7,1.1-1c-0.6-0.3-1-0.7-1.3-1.3c-0.3-0.5-0.5-1.1-0.5-1.7c0-0.8,0.2-1.5,0.5-2.2
			c0.4-0.6,0.8-1.2,1.4-1.8c-0.5-0.5-0.8-1-1.1-1.7c-0.3-0.7-0.4-1.5-0.4-2.4c0-1,0.2-2,0.6-2.8c0.4-0.8,0.9-1.5,1.5-2.1
			c0.7-0.6,1.4-1,2.3-1.3c0.9-0.3,1.9-0.5,3-0.5c0.6,0,1.1,0,1.6,0.1c0.5,0.1,1,0.2,1.4,0.3h5.7c0.2,0,0.4,0.1,0.6,0.4
			C1018.2,641.8,1018.2,642.3,1018.2,643z M1013,661.5c0-0.6-0.2-1.1-0.7-1.4s-1.1-0.5-2-0.5l-3.6-0.1c-0.3,0.3-0.6,0.5-0.8,0.7
			s-0.4,0.5-0.5,0.7c-0.1,0.2-0.2,0.4-0.3,0.6c0,0.2-0.1,0.4-0.1,0.6c0,0.7,0.3,1.2,1,1.5c0.7,0.3,1.6,0.5,2.9,0.5
			c0.8,0,1.4-0.1,1.9-0.2c0.5-0.2,0.9-0.4,1.3-0.6c0.3-0.3,0.5-0.5,0.7-0.9C1012.9,662.2,1013,661.8,1013,661.5z M1011.8,647.2
			c0-1-0.3-1.7-0.8-2.2c-0.5-0.5-1.3-0.8-2.3-0.8c-0.5,0-0.9,0.1-1.3,0.3c-0.4,0.2-0.7,0.4-0.9,0.7s-0.4,0.6-0.5,1
			c-0.1,0.4-0.2,0.8-0.2,1.2c0,0.9,0.3,1.6,0.8,2.2c0.5,0.5,1.3,0.8,2.2,0.8c0.5,0,0.9-0.1,1.3-0.2c0.4-0.2,0.7-0.4,0.9-0.7
			c0.2-0.3,0.4-0.6,0.6-1C1011.7,648,1011.8,647.6,1011.8,647.2z"/>
		<path class="st1" d="M1044.4,656.8c0,0.3,0,0.6,0,0.9c0,0.2,0,0.4-0.1,0.6c0,0.2-0.1,0.3-0.1,0.4c0,0.1-0.2,0.2-0.3,0.4
			s-0.4,0.3-0.8,0.6c-0.4,0.2-0.8,0.4-1.3,0.6c-0.5,0.2-1,0.3-1.6,0.4c-0.6,0.1-1.2,0.2-1.8,0.2c-1.4,0-2.6-0.2-3.7-0.6
			c-1.1-0.4-2-1.1-2.7-1.9s-1.3-1.9-1.6-3.1c-0.4-1.2-0.6-2.6-0.6-4.1c0-1.8,0.2-3.3,0.7-4.6c0.4-1.3,1.1-2.4,1.9-3.2
			c0.8-0.9,1.7-1.5,2.8-1.9c1.1-0.4,2.3-0.6,3.6-0.6c0.5,0,1.1,0,1.6,0.1c0.5,0.1,1,0.2,1.4,0.4c0.4,0.2,0.8,0.3,1.2,0.5
			c0.4,0.2,0.6,0.4,0.8,0.5c0.1,0.1,0.3,0.3,0.3,0.4c0.1,0.1,0.1,0.2,0.1,0.4c0,0.2,0.1,0.4,0.1,0.6c0,0.2,0,0.5,0,0.9
			c0,0.8-0.1,1.3-0.2,1.6c-0.1,0.3-0.3,0.5-0.5,0.5c-0.2,0-0.5-0.1-0.7-0.3c-0.3-0.2-0.6-0.4-0.9-0.6c-0.3-0.2-0.8-0.4-1.2-0.6
			c-0.5-0.2-1.1-0.3-1.7-0.3c-1.3,0-2.3,0.5-3,1.5c-0.7,1-1,2.5-1,4.4c0,1,0.1,1.8,0.3,2.5c0.2,0.7,0.4,1.3,0.8,1.8
			c0.3,0.5,0.8,0.9,1.3,1.1c0.5,0.2,1.1,0.4,1.8,0.4c0.7,0,1.3-0.1,1.8-0.3c0.5-0.2,0.9-0.4,1.3-0.7c0.4-0.3,0.7-0.5,0.9-0.7
			c0.3-0.2,0.5-0.3,0.6-0.3c0.1,0,0.2,0,0.3,0.1c0.1,0.1,0.1,0.2,0.2,0.4c0,0.2,0.1,0.4,0.1,0.7
			C1044.4,656,1044.4,656.3,1044.4,656.8z"/>
		<path class="st1" d="M1063,659.7c0,0.2-0.1,0.3-0.2,0.4c-0.1,0.1-0.3,0.2-0.6,0.2s-0.7,0.1-1.3,0.1c-0.6,0-1,0-1.3-0.1
			c-0.3,0-0.5-0.1-0.6-0.2c-0.1-0.1-0.2-0.3-0.2-0.4v-1.4c-0.7,0.8-1.6,1.4-2.5,1.8c-0.9,0.4-2,0.7-3.1,0.7c-0.9,0-1.8-0.1-2.6-0.4
			c-0.8-0.2-1.5-0.6-2.1-1.1c-0.6-0.5-1-1.1-1.4-1.8s-0.5-1.6-0.5-2.5c0-1,0.2-1.9,0.6-2.7c0.4-0.8,1-1.4,1.8-1.9
			c0.8-0.5,1.8-0.9,3-1.1s2.6-0.4,4.2-0.4h1.7v-1.1c0-0.6-0.1-1.1-0.2-1.5c-0.1-0.4-0.3-0.8-0.6-1.1c-0.3-0.3-0.6-0.5-1-0.6
			c-0.4-0.1-1-0.2-1.6-0.2c-0.8,0-1.6,0.1-2.3,0.3c-0.7,0.2-1.2,0.4-1.8,0.6c-0.5,0.2-0.9,0.4-1.3,0.6c-0.3,0.2-0.6,0.3-0.8,0.3
			c-0.1,0-0.3,0-0.4-0.1c-0.1-0.1-0.2-0.2-0.3-0.4c-0.1-0.2-0.1-0.4-0.2-0.6c0-0.3-0.1-0.5-0.1-0.8c0-0.4,0-0.7,0.1-1
			c0.1-0.2,0.2-0.5,0.4-0.7c0.2-0.2,0.5-0.4,1-0.6c0.5-0.2,1-0.5,1.6-0.7c0.6-0.2,1.3-0.4,2.1-0.5c0.7-0.1,1.5-0.2,2.3-0.2
			c1.4,0,2.6,0.1,3.6,0.4c1,0.3,1.8,0.7,2.5,1.3c0.6,0.6,1.1,1.3,1.4,2.2c0.3,0.9,0.4,2,0.4,3.2V659.7z M1058,652h-1.9
			c-0.8,0-1.5,0.1-2.1,0.2c-0.6,0.1-1,0.3-1.4,0.5c-0.4,0.2-0.6,0.5-0.8,0.9c-0.2,0.3-0.3,0.7-0.3,1.2c0,0.7,0.2,1.3,0.7,1.8
			c0.5,0.4,1.1,0.6,2,0.6c0.7,0,1.4-0.2,2-0.5s1.2-0.9,1.8-1.6V652z"/>
		<path class="st1" d="M1079.5,643.4c0,0.5,0,0.9,0,1.2c0,0.3-0.1,0.5-0.1,0.7c-0.1,0.2-0.1,0.3-0.2,0.4c-0.1,0.1-0.2,0.1-0.3,0.1
			c-0.1,0-0.2,0-0.4-0.1c-0.1,0-0.3-0.1-0.5-0.2c-0.2-0.1-0.4-0.1-0.6-0.2c-0.2,0-0.4-0.1-0.7-0.1c-0.3,0-0.6,0.1-0.8,0.2
			c-0.3,0.1-0.6,0.3-0.9,0.5c-0.3,0.2-0.6,0.6-0.9,1s-0.7,0.9-1.1,1.5v11.1c0,0.1,0,0.3-0.1,0.4c-0.1,0.1-0.2,0.2-0.4,0.3
			c-0.2,0.1-0.5,0.1-0.8,0.2c-0.3,0-0.7,0-1.2,0c-0.5,0-0.9,0-1.2,0c-0.3,0-0.6-0.1-0.8-0.2c-0.2-0.1-0.3-0.2-0.4-0.3
			c-0.1-0.1-0.1-0.2-0.1-0.4v-17.9c0-0.1,0-0.3,0.1-0.4c0.1-0.1,0.2-0.2,0.4-0.3c0.2-0.1,0.4-0.1,0.7-0.2c0.3,0,0.6,0,1,0
			c0.4,0,0.8,0,1.1,0c0.3,0,0.5,0.1,0.7,0.2c0.2,0.1,0.3,0.2,0.3,0.3c0.1,0.1,0.1,0.2,0.1,0.4v2.2c0.5-0.7,0.9-1.2,1.3-1.7
			c0.4-0.4,0.8-0.8,1.2-1c0.4-0.3,0.7-0.4,1.1-0.5c0.4-0.1,0.7-0.2,1.1-0.2c0.2,0,0.4,0,0.6,0c0.2,0,0.4,0.1,0.6,0.1
			c0.2,0,0.4,0.1,0.6,0.2c0.2,0.1,0.3,0.1,0.4,0.2c0.1,0.1,0.1,0.1,0.2,0.2s0.1,0.2,0.1,0.3c0,0.1,0,0.4,0.1,0.6
			C1079.5,642.6,1079.5,642.9,1079.5,643.4z"/>
		<path class="st1" d="M1093.2,657.9c0,0.6,0,1-0.1,1.4s-0.2,0.5-0.3,0.7c-0.1,0.1-0.3,0.2-0.5,0.3c-0.2,0.1-0.5,0.2-0.8,0.3
			s-0.7,0.1-1,0.2c-0.4,0-0.7,0.1-1.1,0.1c-1,0-1.9-0.1-2.6-0.4c-0.7-0.3-1.3-0.6-1.8-1.2c-0.5-0.5-0.8-1.2-1.1-2
			c-0.2-0.8-0.3-1.7-0.3-2.8v-9.1h-2.1c-0.3,0-0.4-0.2-0.6-0.5c-0.1-0.3-0.2-0.8-0.2-1.6c0-0.4,0-0.7,0-1c0-0.3,0.1-0.5,0.1-0.6
			c0.1-0.2,0.2-0.3,0.3-0.3c0.1-0.1,0.2-0.1,0.4-0.1h2.1v-4c0-0.1,0-0.3,0.1-0.4c0.1-0.1,0.2-0.2,0.4-0.3s0.5-0.1,0.8-0.2
			c0.3,0,0.7,0,1.2,0c0.5,0,0.9,0,1.2,0c0.3,0,0.6,0.1,0.8,0.2c0.2,0.1,0.3,0.2,0.4,0.3c0.1,0.1,0.1,0.2,0.1,0.4v4h3.9
			c0.1,0,0.3,0,0.4,0.1c0.1,0.1,0.2,0.2,0.3,0.3c0.1,0.2,0.1,0.4,0.2,0.6c0,0.3,0,0.6,0,1c0,0.7-0.1,1.3-0.2,1.6
			c-0.1,0.3-0.3,0.5-0.6,0.5h-3.9v8.4c0,1,0.2,1.7,0.5,2.2c0.3,0.5,0.9,0.7,1.6,0.7c0.3,0,0.5,0,0.7-0.1c0.2,0,0.4-0.1,0.6-0.2
			c0.2-0.1,0.3-0.1,0.4-0.2s0.2-0.1,0.3-0.1c0.1,0,0.2,0,0.2,0.1c0.1,0,0.1,0.1,0.2,0.3c0,0.1,0.1,0.3,0.1,0.6
			C1093.1,657.2,1093.2,657.5,1093.2,657.9z"/>
		<path class="st1" d="M1134.5,659.6c0,0.1,0,0.3-0.1,0.4c-0.1,0.1-0.2,0.2-0.4,0.3c-0.2,0.1-0.4,0.1-0.8,0.2c-0.3,0-0.7,0-1.2,0
			c-0.5,0-0.9,0-1.2,0c-0.3,0-0.6-0.1-0.8-0.2c-0.2-0.1-0.3-0.2-0.4-0.3c-0.1-0.1-0.1-0.2-0.1-0.4V649c0-0.6-0.1-1.1-0.2-1.6
			c-0.1-0.5-0.3-0.9-0.5-1.3c-0.2-0.4-0.5-0.6-0.9-0.8c-0.4-0.2-0.8-0.3-1.3-0.3c-0.6,0-1.2,0.2-1.8,0.7c-0.6,0.5-1.3,1.1-2,2v11.9
			c0,0.1,0,0.3-0.1,0.4c-0.1,0.1-0.2,0.2-0.4,0.3c-0.2,0.1-0.5,0.1-0.8,0.2c-0.3,0-0.7,0-1.2,0c-0.5,0-0.9,0-1.2,0
			c-0.3,0-0.6-0.1-0.8-0.2c-0.2-0.1-0.3-0.2-0.4-0.3c-0.1-0.1-0.1-0.2-0.1-0.4V649c0-0.6-0.1-1.1-0.2-1.6c-0.1-0.5-0.3-0.9-0.5-1.3
			c-0.2-0.4-0.5-0.6-0.9-0.8c-0.4-0.2-0.8-0.3-1.3-0.3c-0.6,0-1.2,0.2-1.8,0.7c-0.6,0.5-1.3,1.1-2,2v11.9c0,0.1,0,0.3-0.1,0.4
			c-0.1,0.1-0.2,0.2-0.4,0.3c-0.2,0.1-0.5,0.1-0.8,0.2c-0.3,0-0.7,0-1.2,0c-0.5,0-0.9,0-1.2,0c-0.3,0-0.6-0.1-0.8-0.2
			c-0.2-0.1-0.3-0.2-0.4-0.3c-0.1-0.1-0.1-0.2-0.1-0.4v-17.9c0-0.1,0-0.3,0.1-0.4c0.1-0.1,0.2-0.2,0.4-0.3c0.2-0.1,0.4-0.1,0.7-0.2
			c0.3,0,0.6,0,1,0c0.4,0,0.8,0,1.1,0c0.3,0,0.5,0.1,0.7,0.2c0.2,0.1,0.3,0.2,0.3,0.3c0.1,0.1,0.1,0.2,0.1,0.4v2.1
			c1-1.1,2-1.9,3-2.4c1-0.5,2-0.8,3.1-0.8c0.7,0,1.4,0.1,2,0.2c0.6,0.2,1.1,0.4,1.6,0.7c0.5,0.3,0.9,0.6,1.2,1
			c0.3,0.4,0.6,0.8,0.8,1.3c0.5-0.6,1.1-1.1,1.6-1.5c0.5-0.4,1-0.8,1.5-1c0.5-0.3,1-0.5,1.5-0.6c0.5-0.1,1-0.2,1.5-0.2
			c1.2,0,2.2,0.2,3,0.6c0.8,0.4,1.5,0.9,2,1.6c0.5,0.7,0.9,1.5,1.1,2.4c0.2,0.9,0.3,1.9,0.3,2.9V659.6z"/>
		<path class="st1" d="M1154.6,659.7c0,0.2-0.1,0.3-0.2,0.4c-0.1,0.1-0.3,0.2-0.6,0.2s-0.7,0.1-1.3,0.1c-0.6,0-1,0-1.3-0.1
			c-0.3,0-0.5-0.1-0.6-0.2c-0.1-0.1-0.2-0.3-0.2-0.4v-1.4c-0.7,0.8-1.6,1.4-2.5,1.8c-0.9,0.4-2,0.7-3.1,0.7c-0.9,0-1.8-0.1-2.6-0.4
			c-0.8-0.2-1.5-0.6-2.1-1.1c-0.6-0.5-1-1.1-1.4-1.8s-0.5-1.6-0.5-2.5c0-1,0.2-1.9,0.6-2.7c0.4-0.8,1-1.4,1.8-1.9
			c0.8-0.5,1.8-0.9,3-1.1s2.6-0.4,4.2-0.4h1.7v-1.1c0-0.6-0.1-1.1-0.2-1.5c-0.1-0.4-0.3-0.8-0.6-1.1c-0.3-0.3-0.6-0.5-1-0.6
			c-0.4-0.1-1-0.2-1.6-0.2c-0.8,0-1.6,0.1-2.3,0.3c-0.7,0.2-1.2,0.4-1.8,0.6c-0.5,0.2-0.9,0.4-1.3,0.6c-0.3,0.2-0.6,0.3-0.8,0.3
			c-0.1,0-0.3,0-0.4-0.1c-0.1-0.1-0.2-0.2-0.3-0.4c-0.1-0.2-0.1-0.4-0.2-0.6c0-0.3-0.1-0.5-0.1-0.8c0-0.4,0-0.7,0.1-1
			c0.1-0.2,0.2-0.5,0.4-0.7c0.2-0.2,0.5-0.4,1-0.6c0.5-0.2,1-0.5,1.6-0.7c0.6-0.2,1.3-0.4,2.1-0.5c0.7-0.1,1.5-0.2,2.3-0.2
			c1.4,0,2.6,0.1,3.6,0.4c1,0.3,1.8,0.7,2.5,1.3c0.6,0.6,1.1,1.3,1.4,2.2c0.3,0.9,0.4,2,0.4,3.2V659.7z M1149.7,652h-1.9
			c-0.8,0-1.5,0.1-2.1,0.2c-0.6,0.1-1,0.3-1.4,0.5c-0.4,0.2-0.6,0.5-0.8,0.9c-0.2,0.3-0.3,0.7-0.3,1.2c0,0.7,0.2,1.3,0.7,1.8
			c0.5,0.4,1.1,0.6,2,0.6c0.7,0,1.4-0.2,2-0.5s1.2-0.9,1.8-1.6V652z"/>
		<path class="st1" d="M1176.7,659.6c0,0.1,0,0.3-0.1,0.4c-0.1,0.1-0.2,0.2-0.4,0.3c-0.2,0.1-0.4,0.1-0.8,0.2c-0.3,0-0.7,0-1.2,0
			c-0.5,0-0.9,0-1.2,0c-0.3,0-0.6-0.1-0.8-0.2c-0.2-0.1-0.3-0.2-0.4-0.3c-0.1-0.1-0.1-0.2-0.1-0.4v-10.2c0-0.9-0.1-1.5-0.2-2
			c-0.1-0.5-0.3-0.9-0.6-1.3s-0.6-0.6-0.9-0.8c-0.4-0.2-0.8-0.3-1.3-0.3c-0.6,0-1.3,0.2-1.9,0.7c-0.7,0.5-1.3,1.1-2,2v11.9
			c0,0.1,0,0.3-0.1,0.4c-0.1,0.1-0.2,0.2-0.4,0.3c-0.2,0.1-0.5,0.1-0.8,0.2c-0.3,0-0.7,0-1.2,0c-0.5,0-0.9,0-1.2,0
			c-0.3,0-0.6-0.1-0.8-0.2c-0.2-0.1-0.3-0.2-0.4-0.3c-0.1-0.1-0.1-0.2-0.1-0.4v-17.9c0-0.1,0-0.3,0.1-0.4c0.1-0.1,0.2-0.2,0.4-0.3
			c0.2-0.1,0.4-0.1,0.7-0.2c0.3,0,0.6,0,1,0c0.4,0,0.8,0,1.1,0c0.3,0,0.5,0.1,0.7,0.2c0.2,0.1,0.3,0.2,0.3,0.3
			c0.1,0.1,0.1,0.2,0.1,0.4v2.1c1-1.1,2-1.9,3-2.4c1-0.5,2.1-0.8,3.2-0.8c1.2,0,2.2,0.2,3.1,0.6s1.5,0.9,2,1.6
			c0.5,0.7,0.9,1.5,1.1,2.4c0.2,0.9,0.3,2,0.3,3.3V659.6z"/>
		<path class="st1" d="M1196.9,659.7c0,0.2-0.1,0.3-0.2,0.4c-0.1,0.1-0.3,0.2-0.6,0.2s-0.7,0.1-1.3,0.1c-0.6,0-1,0-1.3-0.1
			c-0.3,0-0.5-0.1-0.6-0.2c-0.1-0.1-0.2-0.3-0.2-0.4v-1.4c-0.7,0.8-1.6,1.4-2.5,1.8c-0.9,0.4-2,0.7-3.1,0.7c-0.9,0-1.8-0.1-2.6-0.4
			c-0.8-0.2-1.5-0.6-2.1-1.1c-0.6-0.5-1-1.1-1.4-1.8s-0.5-1.6-0.5-2.5c0-1,0.2-1.9,0.6-2.7c0.4-0.8,1-1.4,1.8-1.9
			c0.8-0.5,1.8-0.9,3-1.1s2.6-0.4,4.2-0.4h1.7v-1.1c0-0.6-0.1-1.1-0.2-1.5c-0.1-0.4-0.3-0.8-0.6-1.1c-0.3-0.3-0.6-0.5-1-0.6
			c-0.4-0.1-1-0.2-1.6-0.2c-0.8,0-1.6,0.1-2.3,0.3c-0.7,0.2-1.2,0.4-1.8,0.6c-0.5,0.2-0.9,0.4-1.3,0.6c-0.3,0.2-0.6,0.3-0.8,0.3
			c-0.1,0-0.3,0-0.4-0.1c-0.1-0.1-0.2-0.2-0.3-0.4c-0.1-0.2-0.1-0.4-0.2-0.6c0-0.3-0.1-0.5-0.1-0.8c0-0.4,0-0.7,0.1-1
			c0.1-0.2,0.2-0.5,0.4-0.7c0.2-0.2,0.5-0.4,1-0.6c0.5-0.2,1-0.5,1.6-0.7c0.6-0.2,1.3-0.4,2.1-0.5c0.7-0.1,1.5-0.2,2.3-0.2
			c1.4,0,2.6,0.1,3.6,0.4c1,0.3,1.8,0.7,2.5,1.3c0.6,0.6,1.1,1.3,1.4,2.2c0.3,0.9,0.4,2,0.4,3.2V659.7z M1191.9,652h-1.9
			c-0.8,0-1.5,0.1-2.1,0.2c-0.6,0.1-1,0.3-1.4,0.5c-0.4,0.2-0.6,0.5-0.8,0.9c-0.2,0.3-0.3,0.7-0.3,1.2c0,0.7,0.2,1.3,0.7,1.8
			c0.5,0.4,1.1,0.6,2,0.6c0.7,0,1.4-0.2,2-0.5s1.2-0.9,1.8-1.6V652z"/>
		<path class="st1" d="M1218,643c0,0.6-0.1,1.1-0.2,1.4c-0.1,0.3-0.3,0.5-0.5,0.5h-2.1c0.3,0.3,0.5,0.7,0.6,1.1
			c0.1,0.4,0.2,0.8,0.2,1.3c0,1-0.2,2-0.5,2.8c-0.3,0.8-0.8,1.5-1.5,2c-0.6,0.6-1.4,1-2.3,1.3s-1.9,0.4-3.1,0.4
			c-0.6,0-1.1-0.1-1.6-0.2c-0.5-0.1-0.9-0.3-1.2-0.5c-0.2,0.2-0.3,0.4-0.4,0.6s-0.2,0.5-0.2,0.8c0,0.4,0.2,0.7,0.5,1
			c0.3,0.2,0.8,0.4,1.4,0.4l4.3,0.2c1,0,1.9,0.2,2.7,0.4c0.8,0.2,1.5,0.6,2,1c0.5,0.4,1,1,1.2,1.6c0.3,0.6,0.4,1.3,0.4,2.1
			c0,0.9-0.2,1.7-0.6,2.5c-0.4,0.8-1,1.5-1.7,2c-0.8,0.6-1.7,1-2.9,1.4c-1.2,0.3-2.5,0.5-4.1,0.5c-1.5,0-2.8-0.1-3.9-0.4
			c-1.1-0.2-2-0.6-2.6-1c-0.7-0.4-1.2-0.9-1.5-1.5s-0.5-1.2-0.5-2c0-0.4,0.1-0.9,0.2-1.3c0.1-0.4,0.3-0.8,0.5-1.2
			c0.2-0.4,0.5-0.7,0.8-1.1c0.3-0.3,0.7-0.7,1.1-1c-0.6-0.3-1-0.7-1.3-1.3c-0.3-0.5-0.5-1.1-0.5-1.7c0-0.8,0.2-1.5,0.5-2.2
			c0.4-0.6,0.8-1.2,1.4-1.8c-0.5-0.5-0.8-1-1.1-1.7c-0.3-0.7-0.4-1.5-0.4-2.4c0-1,0.2-2,0.6-2.8c0.4-0.8,0.9-1.5,1.5-2.1
			c0.7-0.6,1.4-1,2.3-1.3c0.9-0.3,1.9-0.5,3-0.5c0.6,0,1.1,0,1.6,0.1c0.5,0.1,1,0.2,1.4,0.3h5.7c0.2,0,0.4,0.1,0.6,0.4
			C1217.9,641.8,1218,642.3,1218,643z M1212.7,661.5c0-0.6-0.2-1.1-0.7-1.4s-1.1-0.5-2-0.5l-3.6-0.1c-0.3,0.3-0.6,0.5-0.8,0.7
			s-0.4,0.5-0.5,0.7c-0.1,0.2-0.2,0.4-0.3,0.6c0,0.2-0.1,0.4-0.1,0.6c0,0.7,0.3,1.2,1,1.5c0.7,0.3,1.6,0.5,2.9,0.5
			c0.8,0,1.4-0.1,1.9-0.2c0.5-0.2,0.9-0.4,1.3-0.6c0.3-0.3,0.5-0.5,0.7-0.9C1212.6,662.2,1212.7,661.8,1212.7,661.5z M1211.5,647.2
			c0-1-0.3-1.7-0.8-2.2c-0.5-0.5-1.3-0.8-2.3-0.8c-0.5,0-0.9,0.1-1.3,0.3c-0.4,0.2-0.7,0.4-0.9,0.7s-0.4,0.6-0.5,1
			c-0.1,0.4-0.2,0.8-0.2,1.2c0,0.9,0.3,1.6,0.8,2.2c0.5,0.5,1.3,0.8,2.2,0.8c0.5,0,0.9-0.1,1.3-0.2c0.4-0.2,0.7-0.4,0.9-0.7
			c0.2-0.3,0.4-0.6,0.6-1C1211.5,648,1211.5,647.6,1211.5,647.2z"/>
		<path class="st1" d="M1237.4,650.2c0,0.6-0.1,1.1-0.4,1.4c-0.3,0.3-0.7,0.4-1.1,0.4H1225c0,0.8,0.1,1.5,0.3,2.1
			c0.2,0.6,0.5,1.1,0.9,1.6c0.4,0.4,0.9,0.8,1.5,1c0.6,0.2,1.4,0.3,2.2,0.3c0.9,0,1.7-0.1,2.3-0.2c0.7-0.1,1.2-0.3,1.7-0.4
			c0.5-0.2,0.9-0.3,1.2-0.4s0.6-0.2,0.8-0.2c0.1,0,0.2,0,0.3,0.1s0.1,0.1,0.2,0.3c0.1,0.1,0.1,0.3,0.1,0.5c0,0.2,0,0.5,0,0.8
			c0,0.3,0,0.5,0,0.8c0,0.2,0,0.4-0.1,0.5c0,0.1-0.1,0.3-0.1,0.4c-0.1,0.1-0.1,0.2-0.2,0.3c-0.1,0.1-0.3,0.2-0.7,0.4
			c-0.4,0.2-0.9,0.3-1.5,0.5s-1.3,0.3-2.1,0.4c-0.8,0.1-1.6,0.2-2.5,0.2c-1.6,0-3-0.2-4.2-0.6s-2.2-1-3-1.8
			c-0.8-0.8-1.4-1.8-1.8-3.1c-0.4-1.2-0.6-2.7-0.6-4.4c0-1.6,0.2-3,0.6-4.3c0.4-1.3,1-2.4,1.8-3.2c0.8-0.9,1.7-1.6,2.9-2
			c1.1-0.5,2.4-0.7,3.8-0.7c1.5,0,2.8,0.2,3.8,0.7c1.1,0.4,1.9,1.1,2.6,1.8c0.7,0.8,1.2,1.7,1.5,2.8c0.3,1.1,0.5,2.2,0.5,3.5V650.2z
			 M1232.5,648.7c0-1.4-0.2-2.5-0.9-3.3c-0.6-0.8-1.5-1.2-2.8-1.2c-0.6,0-1.2,0.1-1.7,0.4c-0.5,0.2-0.9,0.6-1.2,1s-0.6,0.9-0.7,1.4
			s-0.3,1.1-0.3,1.8H1232.5z"/>
		<path class="st1" d="M1253,643.4c0,0.5,0,0.9,0,1.2c0,0.3-0.1,0.5-0.1,0.7c-0.1,0.2-0.1,0.3-0.2,0.4c-0.1,0.1-0.2,0.1-0.3,0.1
			c-0.1,0-0.2,0-0.4-0.1c-0.1,0-0.3-0.1-0.5-0.2c-0.2-0.1-0.4-0.1-0.6-0.2c-0.2,0-0.4-0.1-0.7-0.1c-0.3,0-0.6,0.1-0.8,0.2
			c-0.3,0.1-0.6,0.3-0.9,0.5c-0.3,0.2-0.6,0.6-0.9,1s-0.7,0.9-1.1,1.5v11.1c0,0.1,0,0.3-0.1,0.4c-0.1,0.1-0.2,0.2-0.4,0.3
			c-0.2,0.1-0.5,0.1-0.8,0.2c-0.3,0-0.7,0-1.2,0c-0.5,0-0.9,0-1.2,0c-0.3,0-0.6-0.1-0.8-0.2c-0.2-0.1-0.3-0.2-0.4-0.3
			c-0.1-0.1-0.1-0.2-0.1-0.4v-17.9c0-0.1,0-0.3,0.1-0.4c0.1-0.1,0.2-0.2,0.4-0.3c0.2-0.1,0.4-0.1,0.7-0.2c0.3,0,0.6,0,1,0
			c0.4,0,0.8,0,1.1,0c0.3,0,0.5,0.1,0.7,0.2c0.2,0.1,0.3,0.2,0.3,0.3c0.1,0.1,0.1,0.2,0.1,0.4v2.2c0.5-0.7,0.9-1.2,1.3-1.7
			c0.4-0.4,0.8-0.8,1.2-1c0.4-0.3,0.7-0.4,1.1-0.5c0.4-0.1,0.7-0.2,1.1-0.2c0.2,0,0.4,0,0.6,0c0.2,0,0.4,0.1,0.6,0.1
			c0.2,0,0.4,0.1,0.6,0.2c0.2,0.1,0.3,0.1,0.4,0.2c0.1,0.1,0.1,0.1,0.2,0.2s0.1,0.2,0.1,0.3c0,0.1,0,0.4,0.1,0.6
			C1253,642.6,1253,642.9,1253,643.4z"/>
	</g>
</g>
</svg>
